<?xml version="1.0" encoding="UTF-8"?>
<svg id="Layer_1" data-name="Layer 1" xmlns="http://www.w3.org/2000/svg" viewBox="0 0 1230 1400">
  <defs>
    <style>
      .cls-1 {
        fill: #726054;
      }

      .cls-2 {
        fill: #d7d7d7;
      }

      .cls-3 {
        fill: #1ca3ed;
      }
    </style>
  </defs>
  <rect class="cls-3" x="176.16" y="982.06" width="62.7" height="62.87" rx="10.79" ry="10.79"/>
  <rect class="cls-3" x="92.72" y="982.06" width="62.7" height="62.87" rx="10.79" ry="10.79"/>
  <rect class="cls-3" x="10.28" y="982.06" width="62.7" height="62.87" rx="10.79" ry="10.79"/>
  <rect class="cls-3" x="320.08" y="836.17" width="62.7" height="62.87" rx="10.79" ry="10.79"/>
  <rect class="cls-1" x="223.18" y="32.5" width="96.68" height="69.98" rx="9.22" ry="9.22"/>
  <rect class="cls-2" x="10" y="772.5" width="288" height="188"/>
  <rect class="cls-3" x="849.18" y="835.8" width="62.87" height="62.7" rx="10.79" ry="10.79" transform="translate(9.63 1743.97) rotate(-89.75)"/>
  <rect class="cls-3" x="320.22" y="365.23" width="62.7" height="62.87" rx="10.79" ry="10.79"/>
  <rect class="cls-2" x="10.13" y="301.56" width="288" height="188"/>
  <rect class="cls-3" x="849.36" y="364.23" width="62.7" height="62.87" rx="10.79" ry="10.79"/>
  <rect class="cls-2" x="934.15" y="302.78" width="288" height="188"/>
  <rect class="cls-2" x="522" y="1096.5" width="188" height="288"/>
  <rect class="cls-3" x="437.89" y="1321.64" width="62.7" height="62.87" rx="10.79" ry="10.79"/>
  <rect class="cls-3" x="438.05" y="1238.98" width="62.7" height="62.87" rx="10.79" ry="10.79"/>
  <rect class="cls-3" x="438.05" y="1155.98" width="62.7" height="62.87" rx="10.79" ry="10.79"/>
  <rect class="cls-3" x="584.75" y="1013.44" width="62.7" height="62.87" rx="10.79" ry="10.79"/>
  <rect class="cls-3" x="731.05" y="1321.34" width="62.7" height="62.87" rx="10.79" ry="10.79"/>
  <rect class="cls-3" x="731.21" y="1238.68" width="62.7" height="62.87" rx="10.79" ry="10.79"/>
  <rect class="cls-3" x="92.56" y="688.48" width="62.7" height="62.87" rx="10.79" ry="10.79"/>
  <rect class="cls-3" x="10.12" y="688.48" width="62.7" height="62.87" rx="10.79" ry="10.79"/>
  <rect class="cls-3" x="175.5" y="511.82" width="62.7" height="62.87" rx="10.79" ry="10.79"/>
  <rect class="cls-3" x="92.06" y="511.82" width="62.7" height="62.87" rx="10.79" ry="10.79"/>
  <rect class="cls-3" x="9.63" y="511.82" width="62.7" height="62.87" rx="10.79" ry="10.79"/>
  <rect class="cls-3" x="92.41" y="215.99" width="62.7" height="62.87" rx="10.79" ry="10.79"/>
  <rect class="cls-3" x="9.97" y="215.99" width="62.7" height="62.87" rx="10.79" ry="10.79"/>
  <rect class="cls-3" x="1158.98" y="219.99" width="62.7" height="62.87" rx="10.79" ry="10.79"/>
  <rect class="cls-3" x="1076.54" y="219.99" width="62.7" height="62.87" rx="10.79" ry="10.79"/>
  <rect class="cls-3" x="1160.48" y="688.2" width="62.7" height="62.87" rx="10.79" ry="10.79"/>
  <rect class="cls-3" x="1078.04" y="688.18" width="62.7" height="62.87" rx="10.79" ry="10.79"/>
  <rect class="cls-3" x="1159.24" y="511.2" width="62.7" height="62.87" rx="10.79" ry="10.79"/>
  <rect class="cls-3" x="1075.8" y="511.2" width="62.7" height="62.87" rx="10.79" ry="10.79"/>
  <rect class="cls-3" x="993.36" y="511.2" width="62.7" height="62.87" rx="10.79" ry="10.79"/>
  <rect class="cls-3" x="1159.75" y="982.19" width="62.7" height="62.87" rx="10.79" ry="10.79"/>
  <rect class="cls-3" x="1076.31" y="982.19" width="62.7" height="62.87" rx="10.79" ry="10.79"/>
  <rect class="cls-3" x="993.87" y="982.19" width="62.7" height="62.87" rx="10.79" ry="10.79"/>
  <rect class="cls-2" x="935.18" y="772.5" width="288" height="188"/>
</svg>